<?xml version="1.0" standalone="no"?>
<!DOCTYPE svg PUBLIC "-//W3C//DTD SVG 20010904//EN"
 "http://www.w3.org/TR/2001/REC-SVG-20010904/DTD/svg10.dtd">
<svg version="1.0" xmlns="http://www.w3.org/2000/svg"
 width="2560.000000pt" height="2560.000000pt" viewBox="0 0 2560.000000 2560.000000"
 preserveAspectRatio="xMidYMid meet">
<metadata>
Created by potrace 1.11, written by Peter Selinger 2001-2013
</metadata>
<g transform="translate(0.000000,2560.000000) scale(0.100000,-0.100000)"
fill="#000000" stroke="none">
<path d="M0 12800 l0 -12800 12800 0 12800 0 0 12800 0 12800 -12800 0 -12800
0 0 -12800z m4935 9501 c412 -78 618 -175 841 -398 91 -91 139 -158 238 -331
142 -247 161 -303 202 -582 18 -123 15 -355 -5 -435 -6 -22 -20 -114 -32 -205
-17 -141 -26 -176 -56 -245 -43 -97 -168 -307 -227 -384 -126 -162 -382 -354
-561 -418 -133 -49 -455 -135 -535 -143 -181 -20 -481 -5 -625 31 -252 64
-568 189 -700 277 -57 38 -311 296 -384 390 -61 78 -154 344 -192 550 -46 249
-44 516 6 710 26 103 114 361 141 415 109 214 208 324 415 463 314 212 481
272 889 320 162 18 443 11 585 -15z m12317 -42 c14 -7 17 -16 12 -27 -15 -33
-15 -270 0 -452 10 -125 12 -188 5 -195 -6 -6 -76 -10 -174 -10 -104 0 -168
-4 -175 -11 -22 -22 -27 -168 -19 -559 6 -323 4 -434 -8 -575 -22 -262 -6
-487 37 -510 10 -6 86 -10 168 -10 110 0 152 -3 160 -13 8 -9 8 -33 2 -77 -14
-93 -13 -516 1 -542 6 -12 7 -24 2 -29 -5 -5 -298 -12 -659 -15 -357 -3 -704
-6 -772 -7 l-123 -2 -2 295 c-1 162 1 311 6 331 11 51 35 59 191 59 100 0 136
3 145 13 8 10 9 73 3 221 -4 114 -4 218 0 232 12 47 -8 49 -507 49 -285 0
-475 -4 -500 -11 -38 -9 -40 -12 -41 -49 0 -22 -6 -89 -13 -149 -16 -145 -13
-272 7 -288 11 -9 60 -13 168 -13 100 0 157 -4 164 -11 13 -13 23 -661 11
-668 -15 -10 -182 -8 -364 3 -150 10 -218 9 -330 -1 -86 -8 -284 -13 -500 -13
-303 1 -360 3 -367 15 -15 24 -12 482 4 578 7 45 16 85 18 88 5 5 269 6 318 1
l25 -2 -1 110 c-1 61 -2 155 -3 210 -2 55 2 147 9 205 9 81 9 149 -1 300 -7
118 -10 294 -7 445 6 259 1 366 -19 386 -7 7 -74 18 -150 26 -76 8 -149 20
-163 27 l-25 11 -2 280 c-1 154 0 290 3 302 2 13 19 30 37 39 28 15 64 17 282
15 138 -2 432 -4 655 -6 419 -2 538 -11 573 -43 16 -14 18 -26 12 -87 -3 -38
-11 -94 -16 -122 -13 -68 -13 -82 0 -247 7 -77 8 -143 3 -148 -4 -4 -80 -13
-167 -19 -88 -6 -163 -14 -167 -18 -9 -7 -13 -460 -4 -468 3 -4 113 -5 243 -5
131 1 337 -2 458 -8 121 -6 252 -7 290 -3 l70 8 -2 30 c-1 17 3 119 9 228 8
161 8 200 -3 213 -11 14 -34 15 -186 9 l-172 -7 -6 25 c-4 14 -1 72 5 128 17
160 23 346 12 429 -6 46 -6 79 0 85 5 6 88 10 201 11 294 2 1080 24 1087 31 8
9 230 -6 252 -18z m1423 7 c511 -1 519 -2 532 -64 13 -63 9 -544 -5 -569 -22
-40 -50 -47 -192 -48 l-135 -2 -10 -74 c-5 -41 -7 -96 -3 -124 10 -79 9 -1404
-1 -1424 -20 -36 0 -42 169 -50 198 -9 194 -6 203 -138 8 -113 -8 -438 -23
-479 -6 -18 -21 -35 -33 -38 -12 -4 -290 -10 -617 -14 -918 -11 -878 -12 -902
31 -9 15 -14 83 -16 222 -6 356 -3 397 26 411 9 5 85 11 167 14 l150 5 9 425
c11 497 12 658 6 835 -2 72 0 189 4 260 11 158 11 157 -89 143 -76 -10 -203
-3 -239 13 -36 17 -42 52 -35 214 4 82 5 154 2 159 -3 4 -5 58 -5 118 2 136
10 152 84 167 95 19 111 19 308 13 107 -3 398 -6 645 -6z m-7512 -12 c207 -14
271 -14 441 -4 223 14 448 7 482 -15 13 -8 38 -57 64 -122 65 -162 180 -406
292 -615 102 -191 294 -619 374 -833 101 -269 190 -476 249 -585 94 -170 72
-154 226 -160 l132 -5 30 -38 31 -37 0 -253 c0 -138 -4 -266 -8 -283 -4 -19
-18 -37 -38 -49 -37 -21 -143 -23 -929 -15 -415 5 -458 7 -483 23 -15 10 -31
29 -36 42 -10 27 -1 450 11 482 11 31 46 50 104 58 60 7 80 24 93 74 7 32 5
51 -13 105 -13 37 -33 78 -46 92 l-23 25 -246 -2 c-135 -2 -339 -1 -455 2
-232 6 -322 0 -336 -22 -5 -8 -20 -47 -33 -88 -23 -66 -24 -76 -12 -106 20
-46 52 -65 111 -65 65 0 96 -17 118 -64 16 -34 18 -63 15 -273 l-3 -235 -27
-23 c-24 -20 -41 -24 -155 -30 -70 -4 -386 -4 -703 0 -662 8 -625 3 -636 93
-4 30 -4 91 0 136 4 44 2 148 -4 230 -15 210 -13 212 189 222 103 6 134 11
146 24 8 9 35 63 60 120 25 57 72 154 104 215 57 106 94 184 256 540 40 88 98
214 130 280 76 161 128 285 156 373 32 99 26 104 -120 112 -123 6 -143 16
-161 79 -5 20 -10 151 -10 292 0 306 -2 300 102 310 121 11 321 9 561 -7z
m-4069 -14 c97 -9 154 -8 305 6 187 16 290 15 389 -6 87 -19 87 -20 84 -320
-1 -140 -7 -269 -13 -287 -6 -18 -20 -35 -32 -39 -12 -4 -89 -8 -171 -8 l-149
-1 -10 -30 c-16 -47 -21 -950 -7 -1059 23 -168 106 -366 194 -463 50 -55 65
-64 139 -90 78 -26 91 -28 247 -27 162 1 166 1 245 33 155 63 270 202 299 364
20 104 30 355 31 742 0 187 5 379 9 428 l9 87 -160 0 c-112 0 -164 4 -176 13
-20 14 -31 120 -43 404 -10 265 -8 268 195 268 475 0 1310 -15 1332 -23 16 -6
31 -23 38 -42 14 -40 14 -511 0 -563 -15 -55 -56 -77 -144 -76 -38 0 -92 5
-120 10 -94 18 -89 21 -98 -51 -4 -38 -3 -117 3 -190 8 -90 9 -256 1 -590 -8
-402 -12 -478 -30 -560 -66 -312 -203 -520 -476 -724 -170 -127 -295 -187
-509 -243 -96 -25 -114 -26 -346 -27 -266 -1 -366 12 -565 69 -222 64 -493
227 -631 377 -89 98 -181 309 -228 526 -38 170 -47 324 -49 860 -3 492 -3 503
-24 523 -17 17 -40 22 -134 30 -63 5 -126 14 -141 20 -39 16 -61 54 -54 94 4
19 2 133 -4 254 -14 289 -19 278 134 313 69 15 115 17 311 13 127 -3 284 -10
349 -15z m12911 7 c131 3 398 3 650 0 121 -1 369 1 550 5 513 10 721 -19 953
-136 133 -67 274 -201 344 -327 99 -178 112 -460 30 -659 -40 -99 -76 -151
-147 -218 -81 -75 -83 -91 -14 -157 127 -125 220 -280 265 -445 19 -69 23
-110 23 -215 0 -177 -30 -289 -111 -416 -79 -123 -237 -261 -373 -325 -86 -41
-279 -87 -485 -115 -142 -20 -180 -21 -455 -14 -593 14 -1183 20 -1325 12
-173 -9 -265 -2 -289 22 -26 26 -31 103 -23 356 9 262 12 274 87 293 39 9 65
10 120 0 48 -7 80 -8 100 -1 l30 10 -5 124 c-7 174 -5 313 8 619 8 177 8 312
2 405 -5 79 -6 219 -1 320 4 99 6 185 3 192 -2 8 -48 13 -146 15 -103 2 -148
7 -159 17 -15 12 -17 38 -17 195 0 100 -5 197 -10 216 -14 47 -14 164 0 191
22 41 65 50 190 42 63 -4 156 -7 205 -6z m-2176 -4778 l173 -10 87 -43 86 -44
38 -76 37 -76 0 -233 c0 -209 -3 -253 -32 -449 l-32 -218 19 -229 c14 -175 17
-281 12 -448 l-6 -219 -34 -75 -34 -75 -74 -27 c-125 -45 -416 -71 -717 -64
l-244 5 -29 -26 -28 -27 -13 -247 c-12 -242 -11 -252 15 -495 l26 -248 -15
-260 c-8 -143 -23 -357 -33 -475 -19 -214 -19 -221 6 -1115 22 -813 24 -965
16 -1570 l-9 -670 35 -50 c19 -27 35 -51 36 -52 1 -1 120 -18 266 -37 l264
-34 245 13 c135 7 373 16 530 20 251 6 320 11 580 46 402 53 393 51 440 119
l38 55 11 250 c6 138 20 396 32 575 19 310 22 329 52 416 l31 92 75 35 76 36
247 17 c216 15 281 16 503 6 196 -9 314 -9 511 0 197 9 313 9 505 0 l249 -12
68 -34 c38 -19 73 -40 79 -48 6 -7 22 -51 36 -98 23 -76 27 -115 38 -375 11
-268 11 -315 -9 -620 -16 -250 -23 -464 -25 -880 l-4 -550 32 -295 c32 -290
33 -300 25 -585 l-7 -290 -33 -66 -33 -67 -96 -20 c-161 -35 -517 -56 -781
-46 -124 4 -619 7 -1100 5 -889 -3 -1418 6 -2065 35 -604 28 -1380 11 -2140
-46 -261 -20 -287 -20 -781 -6 -491 14 -519 13 -760 -6 -206 -16 -298 -19
-533 -14 l-284 7 -81 42 -81 42 -25 82 c-21 64 -30 131 -45 301 -18 216 -18
223 2 443 18 207 18 241 6 439 -13 211 -13 219 13 430 14 118 34 254 45 303
l21 87 71 40 72 40 175 0 c96 0 243 -5 325 -11 83 -7 177 -9 208 -5 53 7 60
11 84 47 23 34 31 73 64 292 38 250 38 255 39 557 0 182 -6 382 -15 495 -37
462 -65 1165 -65 1625 0 247 19 644 50 1070 39 528 47 772 34 1025 -7 127 -13
246 -13 266 -1 34 -4 38 -48 54 -46 18 -49 18 -131 -2 -183 -45 -597 -14 -822
61 l-95 31 -34 64 -33 63 -8 512 c-5 281 -14 581 -20 666 -9 123 -8 202 3 382
14 226 14 226 49 300 l36 73 78 34 79 35 215 7 c193 7 240 5 464 -19 l249 -26
491 12 c418 10 527 10 736 -3 135 -8 349 -18 475 -21 250 -7 414 3 1175 71
206 18 407 31 445 29 39 -2 148 -9 244 -15z m-13959 -38 c331 -63 425 -70
1055 -75 583 -4 930 8 1098 38 191 35 2392 28 2857 -9 228 -18 642 -22 1240
-12 460 8 533 13 935 62 180 23 213 24 335 15 74 -6 161 -18 193 -27 56 -16
58 -18 87 -77 26 -54 35 -95 69 -346 l40 -285 6 -975 6 -975 -35 -235 c-63
-418 -70 -435 -199 -463 -187 -42 -241 -46 -427 -31 -96 7 -359 18 -585 24
-366 10 -430 14 -598 40 -257 39 -268 47 -317 246 l-29 118 21 125 c16 96 21
171 22 314 1 235 13 219 -181 235 -197 17 -233 16 -511 -17 -412 -50 -542 -55
-927 -42 -405 13 -713 14 -850 1 l-100 -9 -47 -52 c-33 -36 -49 -65 -57 -98
-5 -25 -12 -221 -15 -436 -6 -432 4 -554 61 -753 24 -87 29 -94 62 -111 51
-25 105 -38 271 -62 126 -19 170 -21 335 -15 105 4 287 8 405 11 118 2 285 9
370 15 85 7 198 9 250 6 142 -10 457 -54 520 -72 111 -33 126 -59 159 -277 17
-117 18 -137 5 -240 -38 -307 -42 -456 -24 -847 10 -207 10 -292 0 -390 -18
-188 -30 -223 -102 -297 -70 -71 -81 -75 -279 -97 -122 -14 -132 -14 -290 10
-402 59 -471 65 -607 54 -70 -5 -172 -17 -227 -25 -55 -8 -217 -21 -360 -30
-143 -9 -276 -18 -295 -22 -84 -13 -224 -120 -252 -193 -28 -72 -14 -516 22
-714 12 -66 19 -154 20 -255 1 -223 16 -271 86 -290 20 -6 146 -3 341 8 245
13 494 16 1223 15 845 -1 921 -2 999 -19 l84 -19 22 26 c15 17 29 60 44 136
23 115 21 174 -9 334 -14 74 -12 117 11 231 49 239 66 260 236 277 131 13 534
30 708 30 77 0 232 9 345 19 326 31 387 34 510 22 217 -22 275 -46 327 -133
32 -55 42 -97 59 -263 l15 -151 -40 -194 c-67 -330 -75 -492 -46 -902 8 -117
15 -287 15 -377 0 -90 7 -234 15 -320 35 -367 43 -551 29 -698 -27 -276 -58
-329 -219 -366 -195 -45 -446 -57 -775 -37 -85 5 -716 10 -1401 10 l-1246 0
-274 26 c-379 35 -672 35 -1044 -1 l-270 -26 -575 11 c-316 6 -1011 12 -1545
14 l-970 3 -165 30 c-91 17 -201 36 -245 42 -124 18 -138 41 -175 279 -20 129
-20 142 -6 350 8 119 20 399 26 622 10 341 15 429 36 560 13 85 24 164 24 175
0 11 19 51 43 89 37 61 48 71 87 82 25 8 90 16 145 20 96 6 106 4 245 -34 139
-39 148 -40 235 -32 180 16 231 43 264 142 12 35 34 144 48 243 25 174 26 196
25 650 -1 407 -4 497 -22 670 -39 366 -55 1611 -26 2045 8 118 17 346 21 505
3 160 13 389 21 510 12 193 12 239 -1 375 -16 171 -27 220 -58 265 -29 41 -43
51 -107 76 -105 40 -217 52 -387 38 -133 -11 -166 -10 -280 5 -136 19 -186 39
-210 87 -15 29 -55 287 -83 531 -38 337 -24 860 35 1243 46 306 53 314 275
340 175 21 230 18 450 -24z m12275 -11550 c300 -57 509 -157 697 -334 l58 -54
-2 -269 c-2 -170 2 -293 9 -334 14 -74 3 -194 -19 -216 -27 -27 -112 -32 -378
-25 -292 9 -333 16 -346 66 -6 25 1 189 12 276 3 25 1 65 -6 88 -10 38 -17 45
-68 69 -53 25 -69 27 -212 30 -90 2 -187 -1 -230 -8 -359 -57 -632 -399 -634
-795 0 -91 4 -127 28 -209 73 -259 155 -390 286 -456 86 -43 253 -108 335
-130 132 -35 336 -23 486 28 110 39 239 110 317 175 23 18 44 27 69 27 34 0
48 -12 221 -187 187 -191 252 -271 252 -309 0 -52 -310 -274 -487 -348 -87
-37 -209 -69 -323 -86 -41 -6 -120 -21 -175 -32 -164 -33 -408 -25 -625 21
-101 21 -398 126 -478 168 -143 75 -346 263 -465 428 -58 82 -145 257 -182
368 -62 187 -90 409 -82 650 7 205 35 323 132 547 20 47 44 103 53 125 29 73
112 189 170 235 30 25 91 77 134 115 130 116 208 173 298 220 146 75 404 151
596 175 123 15 436 5 559 -19z m-9840 -30 c7 -1 10 -61 7 -183 -2 -110 3 -239
11 -323 8 -85 10 -145 5 -152 -6 -8 -62 -13 -173 -15 -90 -2 -166 -6 -169 -9
-13 -13 -26 -119 -24 -194 3 -113 1 -815 -3 -1100 -4 -262 3 -311 44 -320 12
-2 86 -6 165 -8 78 -2 147 -8 152 -13 5 -5 5 -25 0 -49 -11 -45 -14 -511 -4
-551 4 -17 2 -29 -7 -35 -7 -4 -191 -5 -409 -2 -254 3 -488 1 -655 -7 -143 -7
-280 -14 -305 -15 -25 -1 -67 1 -95 4 -46 6 -50 8 -47 31 4 44 2 242 -4 355
-6 124 7 240 31 264 12 13 46 17 163 21 l147 5 0 239 0 238 -25 10 c-36 14
-830 18 -921 4 l-74 -11 -1 -40 c0 -22 -6 -83 -12 -135 -7 -52 -12 -138 -12
-191 0 -83 3 -98 18 -105 9 -4 83 -8 164 -9 94 -1 152 -5 159 -12 8 -8 12
-112 14 -327 3 -261 1 -317 -11 -327 -10 -8 -48 -10 -132 -5 -314 17 -448 18
-589 6 -178 -16 -735 -16 -776 -1 l-27 11 0 255 c0 153 5 283 12 325 l12 70
56 -2 c30 -1 93 -1 140 1 47 2 97 0 113 -4 30 -8 27 -15 33 85 1 25 -2 86 -7
137 -6 63 -5 132 3 220 7 70 11 157 10 193 -1 36 -4 256 -6 490 -3 234 -7 440
-11 457 -3 18 -14 37 -23 42 -9 5 -69 14 -132 20 -63 6 -129 14 -147 17 -48 9
-58 43 -47 167 10 125 10 154 -1 284 -6 77 -5 110 5 134 25 60 16 59 692 54
350 -3 655 -10 711 -16 139 -16 141 -21 105 -241 -8 -49 -8 -106 1 -219 7 -83
8 -156 4 -160 -4 -4 -79 -12 -167 -18 -87 -5 -160 -11 -161 -13 -2 -2 -5 -104
-6 -228 l-2 -225 34 -6 c33 -7 715 -21 889 -19 122 2 119 -1 117 78 -1 37 3
140 7 229 l9 162 -28 7 c-15 4 -95 4 -176 0 -141 -6 -149 -5 -159 13 -7 14 -6
63 6 173 11 103 15 204 11 309 l-4 156 81 6 c45 3 113 2 151 -2 39 -4 104 -4
145 0 41 5 197 11 345 13 249 4 627 16 632 20 1 1 33 -1 70 -5 37 -5 73 -8 78
-8z m1750 -11 c144 -9 271 -10 405 -4 107 5 250 7 317 4 106 -4 125 -8 141
-25 11 -11 46 -85 78 -165 32 -80 114 -255 183 -390 68 -135 146 -289 173
-344 72 -146 232 -518 294 -683 125 -332 249 -598 306 -655 15 -15 35 -18 136
-18 l118 0 35 -36 34 -35 0 -269 0 -268 -24 -26 c-13 -14 -35 -27 -50 -30 -73
-14 -1294 -2 -1333 13 -58 22 -61 39 -55 281 7 277 9 280 113 295 59 9 81 26
94 74 14 50 -20 155 -62 194 l-30 29 -137 -9 c-153 -9 -169 -9 -548 2 -323 9
-306 14 -347 -100 -24 -67 -26 -81 -15 -106 19 -47 55 -69 110 -69 63 0 95
-15 114 -55 12 -27 15 -77 15 -267 l0 -235 -26 -24 c-24 -22 -35 -24 -172 -30
-81 -4 -284 -4 -452 -1 -168 3 -414 6 -547 6 -310 1 -288 -13 -289 194 -1 81
-4 206 -8 277 -9 177 -6 180 185 191 86 4 129 11 141 21 9 8 33 54 53 101 20
48 68 146 106 219 38 72 93 184 123 250 68 150 205 447 288 628 71 152 138
325 138 353 -1 41 -16 47 -129 52 -170 8 -169 7 -170 373 -1 186 2 233 14 257
9 17 17 31 18 31 1 1 52 5 112 9 128 9 258 7 550 -10z m3334 10 c129 -6 241
-15 250 -19 32 -19 176 -202 276 -351 66 -99 171 -236 294 -380 130 -152 219
-268 276 -357 121 -191 305 -403 348 -403 28 0 57 29 57 56 0 13 -9 81 -21
151 -18 110 -20 162 -17 371 l3 243 -138 -3 c-165 -4 -170 -1 -161 91 2 31 9
164 14 296 4 132 11 247 15 256 17 43 31 44 638 44 560 0 727 -4 775 -19 40
-13 44 -37 43 -264 -2 -230 -12 -340 -33 -353 -32 -20 -177 -38 -307 -39 -11
0 -12 -24 -6 -142 5 -79 6 -197 4 -263 -2 -66 -3 -169 -2 -230 1 -60 2 -319 2
-575 0 -256 5 -517 10 -580 7 -92 6 -149 -8 -283 -10 -92 -22 -172 -27 -177
-18 -18 -190 -40 -313 -40 -69 0 -188 5 -264 12 l-138 12 -122 161 c-68 88
-158 209 -202 269 -43 60 -145 193 -227 295 -82 102 -193 251 -248 331 -54 80
-125 174 -157 210 -96 108 -137 161 -158 204 -22 44 -48 55 -78 32 -17 -13
-18 -27 -7 -258 6 -135 8 -317 4 -410 l-7 -167 24 -5 c13 -3 73 -8 134 -11 60
-4 117 -11 126 -15 14 -8 17 -40 23 -227 11 -353 6 -399 -40 -417 -9 -3 -78
-5 -153 -4 -217 3 -301 2 -746 -6 -482 -9 -524 -6 -552 47 -13 27 -15 51 -9
157 4 69 7 182 6 252 -1 140 12 191 50 203 13 4 73 4 135 0 80 -5 119 -3 135
5 49 26 49 29 39 715 -5 352 -7 651 -4 665 9 45 -12 222 -29 239 -13 12 -39
15 -137 13 -67 -1 -130 3 -140 9 -10 5 -23 26 -28 47 -27 99 -41 471 -20 545
12 43 31 53 119 66 81 12 431 12 699 1z m9244 5 l42 -7 0 -206 c0 -114 2 -263
5 -332 l5 -125 -168 -5 c-133 -4 -170 -8 -177 -20 -9 -15 -21 -111 -20 -170 0
-19 3 -201 6 -405 4 -264 3 -410 -6 -510 -25 -274 -8 -505 38 -519 9 -3 82 -6
161 -8 163 -3 176 -8 160 -61 -11 -36 -13 -534 -3 -561 4 -10 2 -21 -6 -26 -6
-4 -222 -6 -478 -5 -257 2 -552 -2 -657 -8 -189 -10 -264 -12 -340 -9 l-40 2
0 298 c0 163 4 309 8 323 13 41 45 49 192 49 124 0 134 1 140 19 3 11 4 120 1
243 l-6 223 -27 8 c-46 13 -818 16 -908 3 l-80 -11 -12 -115 c-6 -63 -12 -167
-12 -231 -1 -102 1 -118 17 -125 9 -4 83 -8 164 -9 89 -1 152 -5 159 -12 6 -6
11 -122 13 -327 2 -255 0 -318 -11 -327 -9 -8 -50 -10 -131 -5 -310 17 -460
18 -595 6 -148 -14 -685 -17 -756 -5 -23 4 -41 12 -41 18 -5 116 3 521 11 574
l12 73 51 -2 c28 -1 92 0 141 1 50 2 102 0 116 -4 26 -6 27 -5 31 47 2 29 0
105 -4 169 -6 83 -5 160 5 270 10 108 12 186 6 259 -4 58 -8 267 -8 465 0 211
-4 372 -10 387 -12 33 -21 36 -154 48 -209 19 -204 14 -192 182 10 140 10 149
0 280 -9 126 1 163 50 184 26 10 150 12 646 8 665 -4 800 -12 824 -47 16 -23
12 -113 -9 -222 -7 -35 -9 -87 -5 -125 17 -166 19 -241 6 -245 -6 -2 -81 -9
-166 -14 -84 -6 -155 -12 -158 -14 -2 -3 -4 -105 -5 -228 -1 -209 1 -223 18
-230 11 -4 159 -8 329 -9 171 -1 353 -5 405 -8 52 -4 138 -5 190 -2 l95 5 0
80 c0 44 4 145 9 225 8 130 7 147 -8 159 -14 11 -48 13 -181 8 -155 -6 -164
-5 -170 13 -3 10 1 90 11 177 16 153 15 394 -1 435 -4 11 0 18 12 22 10 3 140
8 288 10 406 6 778 15 782 19 6 7 353 8 396 2z m1874 -9 c74 -14 76 -21 80
-239 2 -105 0 -232 -3 -281 -9 -122 -18 -131 -149 -141 -59 -5 -110 -4 -130 2
-18 6 -37 8 -42 4 -15 -10 -29 -150 -22 -216 12 -109 10 -1355 -2 -1377 -7
-14 -8 -23 -1 -30 6 -6 81 -14 168 -17 143 -7 158 -9 174 -29 24 -29 31 -157
21 -372 -9 -194 -18 -229 -64 -241 -42 -11 -148 -13 -272 -4 -67 4 -147 3
-205 -4 -135 -15 -928 -16 -962 -1 -41 19 -49 51 -48 199 1 75 -2 188 -6 252
-7 125 3 181 36 199 10 6 82 10 159 10 138 0 141 0 145 23 5 25 21 820 19 977
-4 361 -4 455 -1 540 l3 95 -30 -2 c-17 -2 -79 -4 -140 -5 -189 -4 -203 12
-189 212 5 70 5 161 1 201 -12 107 -5 194 17 218 11 12 39 23 70 28 64 11
1316 9 1373 -1z"/>
<path d="M4440 21600 c-174 -18 -356 -98 -467 -207 -88 -86 -131 -153 -184
-283 -105 -262 -82 -615 55 -820 113 -171 271 -291 457 -348 147 -45 359 -52
506 -15 159 39 365 223 455 404 67 137 88 236 88 413 -1 248 -45 411 -143 531
-144 176 -263 267 -399 303 -84 23 -256 33 -368 22z"/>
<path d="M11546 21348 c-8 -13 -30 -69 -50 -125 -19 -56 -51 -137 -71 -180
-60 -128 -65 -145 -50 -180 23 -54 43 -60 236 -67 l175 -7 26 24 c49 45 46 75
-25 252 -35 88 -72 185 -82 215 -25 77 -38 90 -96 90 -39 0 -51 -4 -63 -22z"/>
<path d="M20799 21571 c-28 -23 -38 -95 -38 -297 -1 -190 -17 -178 234 -182
279 -5 532 11 593 38 99 44 150 130 139 237 -10 93 -87 188 -173 212 -25 7
-166 11 -385 11 -323 0 -348 -1 -370 -19z"/>
<path d="M20795 20465 l-25 -24 0 -246 c0 -257 5 -293 45 -309 9 -3 166 -6
348 -6 381 0 449 8 527 64 98 70 140 180 116 305 -24 126 -107 206 -240 230
-36 7 -199 11 -403 11 l-344 0 -24 -25z"/>
<path d="M8388 4963 c-8 -10 -32 -67 -53 -128 -21 -60 -58 -152 -82 -203 -51
-111 -54 -143 -15 -181 27 -28 29 -28 199 -35 187 -8 203 -5 228 44 22 42 20
53 -31 175 -25 61 -61 155 -80 210 -38 111 -58 135 -114 135 -23 0 -43 -7 -52
-17z"/>
</g>
</svg>
