<?xml version="1.0" encoding="utf-8"?>
<!DOCTYPE svg PUBLIC "-//W3C//DTD SVG 1.1//EN" "http://www.w3.org/Graphics/SVG/1.1/DTD/svg11.dtd">
<svg xmlns="http://www.w3.org/2000/svg" version="1.1" xmlns:xlink="http://www.w3.org/1999/xlink">
    <symbol id="upwork" viewBox="0 0 40 40">
        <path d="M29.4,10.1c-3.7,0-6.5,2.5-7.6,6.3c-1.8-2.7-3.1-5.8-3.9-8.5h-3.9v10.3c0,2-1.7,3.7-3.7,3.7s-3.7-1.7-3.7-3.7V8H2.7v10.3  c0,4.3,3.4,7.7,7.6,7.7s7.6-3.4,7.6-7.7v-1.8c0.8,1.5,1.8,3.2,2.8,4.7l-2.5,11.4h4l1.7-8.3c1.5,1,3.3,1.5,5.4,1.5  c4.3,0,7.8-3.5,7.8-8C37.1,13.6,33.6,10.1,29.4,10.1z M29.4,21.9c-1.5,0-3.1-0.7-4.4-1.8l0.4-1.5v-0.1c0.3-1.7,1.2-4.5,4.1-4.5  c2.2,0,3.9,1.8,3.9,3.9C33.3,20.1,31.4,21.9,29.4,21.9z"/>
    </symbol>
    <symbol id="email" viewBox="0 0 40 40">
        <path d="M37.3,15.3v15.3c0,0.8-0.3,1.6-0.9,2.2c-0.6,0.6-1.4,0.9-2.2,0.9H5.8c-0.8,0-1.6-0.3-2.2-0.9s-0.9-1.4-0.9-2.2V15.3 c0.5,0.6,1.2,1.1,2,1.7c4.7,3.1,7.9,5.4,9.6,6.7c0.7,0.5,1.4,0.9,1.8,1.2c0.4,0.3,1,0.6,1.9,0.9c0.7,0.3,1.5,0.5,2.1,0.5l0,0 c0.6,0,1.4-0.2,2.1-0.5c0.7-0.3,1.4-0.6,1.9-0.9c0.4-0.3,1-0.7,1.8-1.2c2.2-1.6,5.4-3.8,9.6-6.7C36.1,16.5,36.7,15.9,37.3,15.3 L37.3,15.3z M37.3,9.6c0,1-0.3,2-0.9,2.9c-0.6,0.9-1.5,1.8-2.4,2.4c-4.9,3.3-7.9,5.4-9,6.2c-0.1,0.1-0.4,0.3-0.8,0.6 c-0.4,0.3-0.7,0.5-1,0.7c-0.3,0.2-0.6,0.4-1,0.6c-0.4,0.2-0.7,0.4-1.1,0.5c-0.4,0.1-0.6,0.2-0.9,0.2l0,0c-0.3,0-0.6-0.1-0.9-0.2 c-0.3-0.1-0.7-0.3-1.1-0.5c-0.4-0.2-0.7-0.4-1-0.6c-0.3-0.2-0.6-0.4-1-0.7c-0.4-0.3-0.7-0.5-0.8-0.6c-1.1-0.8-2.8-2-5.1-3.5 c-2.3-1.6-3.3-2.4-3.7-2.7c-0.8-0.5-1.6-1.2-2.3-2.2s-1-1.9-1-2.6c0-1,0.3-1.9,0.8-2.5c0.5-0.6,1.2-1,2.3-1h28.4 c0.8,0,1.6,0.3,2.2,0.9C37.1,8.1,37.3,8.8,37.3,9.6L37.3,9.6z" />
    </symbol>
    <symbol id="github" viewBox="0 0 40 40">
        <path d="M36,20.3c0,3.5-1,6.6-3.1,9.4c-2,2.8-4.7,4.7-7.9,5.8c-0.4,0.1-0.6,0-0.8-0.1c-0.2-0.2-0.3-0.4-0.3-0.6v-4.4 c0-1.3-0.4-2.3-1.1-3c0.8-0.1,1.5-0.2,2.1-0.4c0.6-0.2,1.3-0.4,2-0.8c0.7-0.4,1.2-0.8,1.7-1.4c0.5-0.5,0.8-1.3,1.1-2.2 s0.4-2,0.4-3.1c0-1.7-0.5-3.1-1.6-4.3c0.5-1.3,0.5-2.7-0.2-4.2c-0.4-0.1-1,0-1.7,0.2c-0.7,0.3-1.4,0.6-1.9,0.9L24,12.5 c-1.3-0.4-2.6-0.5-4-0.5s-2.7,0.2-4,0.5c-0.2-0.2-0.5-0.3-0.9-0.6c-0.4-0.2-0.9-0.5-1.7-0.8c-0.8-0.3-1.4-0.4-1.8-0.3 c-0.6,1.6-0.7,3-0.1,4.2c-1.1,1.2-1.6,2.6-1.6,4.3c0,1.2,0.1,2.2,0.4,3.1s0.6,1.6,1.1,2.2s1,1,1.7,1.4c0.7,0.4,1.3,0.6,2,0.8 c0.6,0.2,1.3,0.3,2.1,0.4c-0.6,0.5-0.9,1.2-1,2.1c-0.3,0.1-0.6,0.2-0.9,0.3c-0.3,0.1-0.7,0.1-1.2,0.1c-0.5,0-0.9-0.1-1.4-0.4 c-0.5-0.3-0.8-0.7-1.2-1.3c-0.3-0.4-0.6-0.8-1-1.1c-0.4-0.3-0.8-0.4-1-0.5L9,26.5c-0.3,0-0.5,0-0.6,0.1c-0.1,0.1-0.1,0.1-0.1,0.2 c0,0.1,0.1,0.2,0.2,0.3c0.1,0.1,0.2,0.2,0.3,0.2l0.1,0.1c0.3,0.1,0.6,0.4,0.9,0.8s0.5,0.7,0.7,1.1l0.2,0.5c0.2,0.5,0.5,1,0.9,1.3 c0.4,0.3,0.9,0.5,1.4,0.6c0.5,0.1,1,0.1,1.4,0.1c0.5,0,0.9,0,1.2-0.1l0.5-0.1c0,0.5,0,1.1,0,1.9c0,0.7,0,1.1,0,1.1 c0,0.2-0.1,0.5-0.3,0.6c-0.2,0.2-0.5,0.2-0.8,0.1c-3.2-1.1-5.8-3-7.9-5.8S4,23.8,4,20.3c0-2.9,0.7-5.6,2.1-8S9.5,7.8,12,6.4 s5.1-2.1,8-2.1s5.6,0.7,8,2.1s4.4,3.4,5.8,5.8S36,17.4,36,20.3L36,20.3z" />
    </symbol>
    <symbol id="linkedin" viewBox="0 0 40 40">
        <path d="M12.1,13.8v19.1H5.7V13.8C5.7,13.8,12.1,13.8,12.1,13.8z M12.5,7.9c0,0.9-0.3,1.7-1,2.4c-0.7,0.6-1.5,0.9-2.6,0.9h0 c-1.1,0-1.9-0.3-2.5-0.9c-0.6-0.6-1-1.4-1-2.4c0-1,0.3-1.7,1-2.4S7.9,4.6,9,4.6s1.9,0.3,2.6,0.9S12.5,6.9,12.5,7.9z M35,22v11h-6.4 V22.7c0-1.4-0.3-2.4-0.8-3.2c-0.5-0.8-1.3-1.1-2.4-1.1c-0.8,0-1.5,0.2-2,0.7c-0.5,0.4-1,1-1.2,1.7c-0.1,0.4-0.2,0.9-0.2,1.6v10.7 h-6.4c0-5.1,0-9.3,0-12.5s0-5.1,0-5.7l0-0.9H22v2.8h0c0.3-0.4,0.5-0.8,0.8-1.1c0.3-0.3,0.6-0.6,1.1-1c0.5-0.4,1-0.6,1.7-0.8 c0.7-0.2,1.4-0.3,2.2-0.3c2.2,0,4,0.7,5.3,2.2C34.4,17,35,19.1,35,22L35,22z" />
    </symbol>
    <symbol id="skype" viewBox="0 0 40 40">
        <path d="M28.6,23.8c0-0.7-0.1-1.4-0.4-2c-0.3-0.6-0.6-1.1-1.1-1.5c-0.4-0.4-0.9-0.7-1.6-1.1c-0.6-0.3-1.2-0.6-1.8-0.7 c-0.6-0.2-1.2-0.3-1.9-0.5l-2.3-0.5c-0.4-0.1-0.8-0.2-1-0.2c-0.2-0.1-0.5-0.1-0.8-0.2c-0.3-0.1-0.5-0.2-0.7-0.3 c-0.1-0.1-0.3-0.3-0.4-0.5s-0.2-0.4-0.2-0.7c0-1.1,1-1.7,3.1-1.7c0.6,0,1.2,0.1,1.7,0.3c0.5,0.2,0.9,0.4,1.2,0.6 c0.3,0.2,0.6,0.5,0.8,0.7c0.3,0.2,0.6,0.5,0.9,0.6c0.3,0.2,0.7,0.3,1,0.3c0.7,0,1.2-0.2,1.6-0.7s0.6-1,0.6-1.7 c0-0.8-0.4-1.5-1.2-2.2s-1.8-1.1-3.1-1.5c-1.2-0.3-2.6-0.5-4-0.5c-1,0-1.9,0.1-2.9,0.3c-0.9,0.2-1.8,0.6-2.6,1 c-0.8,0.5-1.4,1.1-1.9,1.9c-0.5,0.8-0.7,1.7-0.7,2.8c0,0.9,0.1,1.7,0.4,2.3c0.3,0.7,0.7,1.2,1.2,1.6c0.5,0.4,1.1,0.8,1.7,1.1 c0.6,0.3,1.4,0.5,2.2,0.7l3.2,0.8c1.3,0.3,2.1,0.6,2.4,0.8c0.5,0.3,0.7,0.7,0.7,1.3c0,0.6-0.3,1-0.9,1.4S21,26.5,20,26.5 c-0.7,0-1.4-0.1-2-0.3c-0.6-0.2-1.1-0.5-1.4-0.8c-0.4-0.3-0.7-0.7-1-1c-0.3-0.3-0.6-0.6-1-0.8c-0.4-0.2-0.8-0.3-1.2-0.3 c-0.7,0-1.3,0.2-1.6,0.7c-0.4,0.4-0.6,1-0.6,1.6c0,1.3,0.9,2.5,2.7,3.4s3.9,1.4,6.3,1.4c1.1,0,2.1-0.1,3-0.4c1-0.3,1.9-0.7,2.7-1.2 c0.8-0.5,1.4-1.2,1.9-2C28.3,25.9,28.6,24.9,28.6,23.8L28.6,23.8z M36.5,28.6c0,2.3-0.8,4.3-2.4,5.9c-1.6,1.6-3.6,2.4-5.9,2.4 c-1.9,0-3.6-0.6-5.1-1.7c-1.1,0.2-2.2,0.3-3.3,0.3c-2.1,0-4.1-0.4-5.9-1.2S10.3,32.4,9,31c-1.4-1.4-2.5-3-3.3-4.9 c-0.8-1.9-1.2-3.9-1.2-5.9c0-1.1,0.1-2.1,0.3-3.3c-1.2-1.5-1.7-3.2-1.7-5.1c0-2.3,0.8-4.3,2.4-5.9s3.6-2.4,5.9-2.4 c1.9,0,3.6,0.6,5.1,1.7c1.1-0.2,2.2-0.3,3.3-0.3c2.1,0,4.1,0.4,5.9,1.2c1.9,0.8,3.5,1.9,4.9,3.3c1.4,1.4,2.5,3,3.3,4.9 c0.8,1.9,1.2,3.9,1.2,5.9c0,1.1-0.1,2.1-0.3,3.3C35.9,25,36.5,26.7,36.5,28.6z" />
    </symbol>
    <symbol id="twitter" viewBox="0 0 40 40">
        <path d="M36.3,10.2c-1,1.3-2.1,2.5-3.4,3.5c0,0.2,0,0.4,0,1c0,1.7-0.2,3.6-0.9,5.3c-0.6,1.7-1.2,3.5-2.4,5.1 c-1.1,1.5-2.3,3.1-3.7,4.3c-1.4,1.2-3.3,2.3-5.3,3c-2.1,0.8-4.2,1.2-6.6,1.2c-3.6,0-7-1-10.2-3c0.4,0,1.1,0.1,1.5,0.1 c3.1,0,5.9-1,8.2-2.9c-1.4,0-2.7-0.4-3.8-1.3c-1.2-1-1.9-2-2.2-3.3c0.4,0.1,1,0.1,1.2,0.1c0.6,0,1.2-0.1,1.7-0.2 c-1.4-0.3-2.7-1.1-3.7-2.3s-1.4-2.6-1.4-4.2v-0.1c1,0.6,2,0.9,3,0.9c-1-0.6-1.5-1.3-2.2-2.4c-0.6-1-0.9-2.1-0.9-3.3s0.3-2.3,1-3.4 c1.5,2.1,3.6,3.6,6,4.9s4.9,2,7.6,2.1c-0.1-0.6-0.1-1.1-0.1-1.4c0-1.8,0.8-3.5,2-4.7c1.2-1.2,2.9-2,4.7-2c2,0,3.6,0.8,4.8,2.1 c1.4-0.3,2.9-0.9,4.2-1.5c-0.4,1.5-1.4,2.7-2.9,3.6C33.8,11.2,35.1,10.9,36.3,10.2L36.3,10.2z" />
    </symbol>
</svg>